<?xml version="1.0" standalone="no"?>
<!DOCTYPE svg PUBLIC "-//W3C//DTD SVG 20010904//EN"
 "http://www.w3.org/TR/2001/REC-SVG-20010904/DTD/svg10.dtd">
<svg version="1.0" xmlns="http://www.w3.org/2000/svg"
 width="1903.000000pt" height="1903.000000pt" viewBox="0 0 1903.000000 1903.000000"
 preserveAspectRatio="xMidYMid meet">
<metadata>
Created by potrace 1.14, written by Peter Selinger 2001-2017
</metadata>
<g transform="translate(0.000000,1903.000000) scale(0.100000,-0.100000)"
fill="#000000" stroke="none">
<path d="M8579 19016 c-2 -2 -36 -7 -76 -10 -40 -4 -89 -9 -110 -12 -21 -3
-56 -7 -78 -9 -22 -2 -51 -6 -65 -9 -14 -2 -47 -7 -75 -11 -76 -9 -112 -15
-195 -29 -19 -3 -48 -8 -65 -11 -66 -11 -201 -35 -225 -41 -14 -3 -34 -6 -45
-8 -11 -2 -29 -6 -40 -9 -11 -4 -36 -9 -55 -11 -19 -3 -55 -10 -80 -17 -68
-16 -70 -17 -140 -32 -36 -8 -102 -24 -148 -36 -46 -12 -87 -19 -92 -16 -6 4
-10 2 -10 -4 0 -5 -15 -13 -32 -16 -82 -18 -462 -133 -613 -185 -157 -55 -309
-110 -330 -120 -53 -25 -123 -48 -129 -43 -3 4 -6 2 -6 -4 0 -9 -16 -17 -43
-21 -4 -1 -20 -8 -35 -16 -15 -8 -52 -24 -82 -36 -30 -13 -83 -36 -118 -51
-34 -16 -65 -29 -67 -29 -5 0 -165 -76 -340 -160 -49 -24 -102 -52 -117 -63
-16 -10 -28 -16 -28 -13 0 4 -17 -4 -37 -17 -21 -12 -60 -34 -88 -47 -27 -14
-51 -28 -53 -32 -2 -5 -8 -8 -12 -8 -5 0 -78 -40 -162 -88 -207 -119 -202
-116 -208 -123 -3 -3 -12 -9 -20 -12 -8 -4 -28 -16 -45 -27 -16 -11 -37 -23
-45 -27 -8 -4 -21 -13 -28 -20 -7 -7 -20 -13 -28 -13 -8 0 -14 -4 -14 -8 0 -5
-12 -15 -27 -23 -16 -8 -30 -16 -33 -20 -3 -3 -23 -16 -45 -29 -22 -13 -44
-28 -50 -32 -5 -5 -46 -33 -90 -63 -44 -30 -98 -67 -120 -83 -22 -16 -56 -39
-75 -53 -73 -51 -328 -245 -395 -301 -11 -9 -40 -33 -65 -53 -81 -65 -299
-251 -310 -264 -3 -3 -41 -38 -85 -76 -142 -125 -585 -573 -712 -721 -10 -12
-40 -48 -68 -80 -27 -32 -57 -65 -65 -74 -8 -9 -33 -38 -55 -65 -21 -28 -47
-59 -57 -70 -16 -17 -53 -64 -183 -230 -16 -21 -34 -45 -39 -54 -5 -9 -12 -18
-15 -21 -17 -14 -71 -89 -71 -99 0 -6 -4 -11 -9 -11 -5 0 -17 -13 -28 -29 -10
-16 -58 -87 -108 -158 -49 -70 -115 -166 -145 -213 -30 -47 -58 -86 -62 -88
-5 -2 -8 -8 -8 -14 0 -5 -15 -33 -34 -61 -35 -53 -105 -168 -136 -222 -10 -16
-41 -70 -69 -118 -28 -49 -51 -92 -51 -97 0 -5 -3 -10 -7 -12 -10 -4 -56 -94
-53 -104 1 -4 -3 -10 -8 -13 -10 -7 -43 -67 -41 -77 0 -4 -3 -10 -8 -13 -13
-9 -164 -316 -258 -526 -23 -52 -37 -86 -39 -95 -1 -3 -7 -14 -13 -25 -24 -43
-62 -148 -57 -156 3 -5 0 -9 -6 -9 -6 0 -13 -8 -16 -17 -7 -23 -64 -172 -75
-198 -13 -30 -81 -218 -83 -230 -1 -5 -4 -14 -7 -20 -6 -10 -110 -331 -134
-415 -7 -25 -22 -76 -34 -115 -11 -38 -25 -88 -30 -110 -5 -22 -23 -92 -40
-156 -16 -63 -32 -126 -35 -140 -2 -13 -14 -67 -26 -119 -12 -52 -24 -104 -26
-115 -1 -11 -5 -31 -9 -45 -3 -14 -8 -40 -11 -59 -3 -18 -8 -42 -10 -52 -12
-54 -15 -68 -23 -119 -6 -30 -12 -71 -15 -90 -3 -19 -8 -46 -11 -60 -2 -13 -7
-42 -10 -65 -4 -22 -8 -51 -10 -65 -2 -14 -7 -45 -10 -70 -11 -94 -17 -136
-20 -160 -2 -14 -6 -50 -10 -80 -3 -30 -8 -71 -10 -90 -4 -31 -13 -122 -20
-205 -16 -186 -20 -351 -20 -820 0 -495 3 -599 20 -782 3 -29 7 -78 10 -108
16 -172 19 -206 40 -355 9 -63 18 -133 21 -155 7 -53 15 -102 20 -129 2 -11 9
-50 15 -86 20 -130 91 -468 134 -645 209 -853 519 -1634 970 -2440 199 -356
548 -874 812 -1205 37 -47 281 -340 304 -365 15 -16 51 -57 80 -89 226 -251
537 -560 754 -751 44 -38 87 -76 95 -84 29 -27 295 -248 350 -290 30 -24 98
-75 150 -114 52 -40 99 -76 105 -80 89 -71 430 -301 620 -419 222 -138 479
-283 680 -384 81 -41 98 -50 123 -64 9 -6 26 -14 37 -19 11 -5 61 -28 110 -51
50 -23 110 -51 135 -62 25 -11 70 -31 100 -45 30 -14 76 -33 101 -43 26 -10
66 -28 90 -38 102 -46 397 -156 649 -242 91 -31 420 -130 480 -145 8 -2 87
-21 175 -44 161 -40 379 -90 490 -111 33 -6 70 -13 83 -16 60 -11 149 -27 167
-29 11 -2 49 -8 85 -14 36 -6 82 -13 103 -16 20 -3 54 -8 75 -11 20 -3 54 -8
75 -10 21 -1 53 -5 71 -8 18 -3 59 -8 92 -12 32 -3 73 -8 89 -10 17 -2 66 -7
110 -11 104 -10 1687 -10 1785 0 41 4 89 9 105 11 17 2 62 6 100 10 39 4 77 9
85 11 8 2 42 6 75 10 33 3 67 7 75 10 8 2 35 6 60 9 25 4 56 8 70 11 14 2 41
6 60 9 86 11 523 97 670 132 14 3 30 7 35 8 6 1 19 5 30 9 11 3 31 8 45 11
169 32 765 217 1035 321 200 77 306 119 330 130 17 8 50 23 75 33 25 11 97 43
161 71 206 90 564 273 834 426 193 109 676 418 683 437 2 4 8 8 14 8 6 0 23
10 38 22 16 13 48 37 72 54 47 34 234 172 258 191 125 98 295 236 343 278 7 6
41 35 77 65 35 30 72 62 81 70 9 8 63 58 120 110 133 121 489 477 599 599 47
52 92 102 100 111 8 9 40 45 70 80 30 36 57 67 61 70 3 3 49 59 103 125 54 66
105 129 115 140 9 11 63 83 121 160 58 77 109 144 113 150 27 33 207 294 254
370 32 50 60 92 63 95 7 6 180 292 216 357 15 27 30 53 34 58 14 19 58 99 217
400 29 55 56 107 59 115 7 15 33 71 118 253 25 54 46 100 46 102 0 2 14 33 30
68 17 36 30 71 30 79 0 8 4 18 9 23 11 11 96 227 176 445 95 259 194 581 265
857 30 118 35 141 46 193 3 13 9 29 15 36 5 6 6 14 3 17 -3 3 2 36 11 74 10
37 19 79 21 93 3 14 7 39 11 55 8 36 6 26 31 160 12 61 23 124 26 140 2 17 11
73 20 125 17 104 29 195 30 223 0 9 3 17 6 17 3 0 5 15 6 33 0 32 12 146 19
189 3 20 8 71 21 218 16 184 19 325 18 845 -1 330 -4 625 -8 655 -4 30 -8 89
-11 130 -2 41 -5 75 -5 75 -3 0 -8 36 -14 110 -3 44 -8 91 -10 105 -3 14 -7
50 -10 80 -3 30 -7 64 -9 75 -3 11 -8 47 -11 80 -4 33 -9 67 -11 75 -2 8 -7
38 -10 65 -11 78 -12 82 -40 235 -14 80 -36 188 -47 240 -11 52 -22 104 -24
115 -2 11 -5 31 -8 45 -7 28 -114 446 -121 470 -2 8 -13 44 -23 80 -10 36 -21
72 -24 80 -3 8 -20 62 -38 120 -41 136 -131 396 -183 530 -23 58 -42 107 -42
110 -1 3 -7 18 -13 33 -7 16 -12 30 -12 33 0 4 -9 25 -59 136 -11 26 -21 50
-21 52 0 3 -16 40 -36 83 -20 43 -43 94 -51 113 -63 145 -288 583 -396 772
-81 142 -99 172 -118 200 -11 14 -19 29 -19 32 0 13 -320 500 -332 504 -4 2
-8 10 -8 17 0 7 -4 15 -8 17 -5 2 -24 26 -43 53 -71 104 -310 416 -361 470
-15 17 -28 33 -28 37 0 4 -10 18 -22 30 -13 13 -43 48 -68 78 -25 30 -81 95
-126 145 -44 49 -93 105 -110 124 -85 97 -365 381 -376 381 -5 0 -6 5 -3 10 3
6 2 10 -2 10 -5 0 -38 28 -74 63 -119 113 -281 261 -355 324 -55 46 -128 108
-138 117 -6 6 -27 23 -48 38 -20 15 -42 34 -50 41 -7 7 -65 53 -128 102 -63
49 -121 95 -128 102 -7 7 -17 13 -21 13 -4 0 -16 8 -27 18 -22 20 -246 182
-275 198 -10 6 -27 18 -37 27 -10 10 -24 17 -30 17 -7 0 -12 4 -12 8 0 5 -16
17 -35 28 -19 10 -35 22 -35 26 0 5 -3 7 -7 6 -5 -2 -24 9 -44 25 -20 15 -39
27 -42 27 -3 0 -38 22 -79 48 -40 27 -86 57 -103 66 -16 9 -52 31 -80 48 -27
17 -111 65 -185 108 -317 182 -644 345 -955 477 -71 31 -134 59 -140 63 -5 5
-14 8 -18 8 -7 0 -148 53 -192 73 -90 39 -468 168 -675 229 -41 12 -82 25 -90
28 -8 3 -24 7 -34 9 -11 2 -38 10 -60 17 -23 8 -57 17 -76 20 -19 4 -44 11
-55 15 -20 9 -88 25 -250 62 -49 11 -98 22 -107 25 -34 8 -56 12 -189 38 -74
14 -156 30 -184 36 -66 13 -100 19 -155 26 -25 3 -54 8 -65 10 -19 4 -38 7
-125 20 -19 3 -57 7 -84 10 -28 3 -54 7 -58 10 -4 3 -41 7 -81 10 -39 2 -83 7
-97 11 -25 7 -1953 16 -1961 9z"/>
</g>
</svg>
